<?xml version="1.0" standalone="no"?>
<!DOCTYPE svg PUBLIC "-//W3C//DTD SVG 20010904//EN"
 "http://www.w3.org/TR/2001/REC-SVG-20010904/DTD/svg10.dtd">
<svg version="1.0" xmlns="http://www.w3.org/2000/svg"
 width="256.000000pt" height="256.000000pt" viewBox="0 0 256.000000 256.000000"
 preserveAspectRatio="xMidYMid meet">
<metadata>
Created by potrace 1.16, written by Peter Selinger 2001-2019
</metadata>
<g transform="translate(0.000000,256.000000) scale(0.100000,-0.100000)"
fill="#000000" stroke="none">
<path d="M1345 1600 c-93 -10 -230 -47 -300 -82 -74 -37 -165 -92 -165 -100 0
-20 43 -5 68 23 21 24 33 30 50 25 11 -4 24 -15 27 -25 5 -16 10 -15 63 11 65
32 178 62 270 73 l63 7 -20 -52 -19 -51 41 3 c41 3 42 4 51 51 9 47 9 47 50
47 43 0 169 -17 199 -26 10 -3 17 -15 17 -30 0 -17 5 -24 20 -24 13 0 20 7 20
20 0 24 11 25 76 5 37 -11 57 -12 84 -4 35 11 77 36 69 42 -12 9 -194 59 -263
72 -102 20 -286 26 -401 15z"/>
<path d="M440 1281 c-65 -34 -107 -126 -96 -208 7 -50 2 -52 -70 -27 -62 21
-78 6 -31 -30 36 -27 65 -37 31 -10 -19 15 -19 15 2 5 11 -5 45 -13 75 -17 44
-6 50 -9 29 -15 -14 -4 -18 -7 -8 -8 9 -1 24 -4 34 -8 13 -5 15 -3 9 8 -7 11
-5 11 10 -1 17 -14 16 -15 -21 -18 -64 -4 -126 -13 -121 -18 4 -4 1952 -7
1982 -3 30 4 -51 17 -115 19 -43 1 -65 5 -52 8 13 4 22 9 20 12 -2 3 6 19 17
35 20 30 45 44 45 25 0 -16 37 -12 44 5 3 8 13 15 23 15 15 0 16 -2 3 -10 -29
-19 5 -10 37 10 32 19 70 66 61 76 -7 7 -48 -12 -78 -36 -14 -11 -41 -21 -60
-22 -35 -3 -35 -3 -41 48 -12 95 -49 146 -128 172 -48 17 -90 14 -137 -7 -63
-29 -103 -93 -118 -191 l-6 -35 -237 0 c-131 0 -362 -2 -513 -4 l-275 -4 -7
52 c-13 89 -66 166 -131 190 -45 17 -138 13 -177 -8z m160 -46 c61 -31 94
-108 70 -164 -42 -102 -171 -121 -239 -35 -85 107 46 262 169 199z m1449 -3
c63 -34 87 -110 55 -178 -42 -89 -169 -99 -233 -18 -26 33 -29 118 -5 153 41
58 120 77 183 43z m-764 -222 c-26 -5 7 -8 97 -9 75 0 139 3 143 8 3 5 34 9
70 9 36 0 63 -4 60 -8 -2 -4 30 -7 73 -8 56 0 69 2 47 8 l-30 8 27 1 c15 0 30
-4 33 -9 4 -6 10 -8 14 -5 5 2 16 -4 25 -14 12 -13 14 -21 6 -26 -6 -3 -167
-4 -358 0 -191 3 -460 2 -599 -2 -138 -4 -249 -5 -246 0 2 4 50 7 106 8 101 0
218 14 167 19 -19 2 -16 4 15 11 22 4 49 8 60 8 17 1 17 -1 5 -9 -10 -7 9 -10
63 -10 46 0 76 4 72 9 -6 11 46 17 135 18 52 0 53 0 15 -7z"/>
</g>
</svg>
